<svg width="72" height="73" viewBox="0 0 72 73" fill="none" xmlns="http://www.w3.org/2000/svg">
<g clip-path="url(#clip0_1_183)">
<path d="M70.6422 33.2474L39.2059 1.37686C37.3968 -0.458954 34.4604 -0.458954 32.649 1.37686L26.1212 7.99526L34.402 16.391C36.3264 15.7318 38.5328 16.1739 40.067 17.7294C41.6083 19.2945 42.0412 21.5508 41.3752 23.5084L49.3558 31.5998C51.2865 30.9254 53.5143 31.3619 55.0564 32.9278C57.2115 35.112 57.2115 38.6523 55.0564 40.8381C52.9005 43.024 49.4087 43.024 47.252 40.8381C45.6309 39.193 45.2304 36.7788 46.0512 34.754L38.6087 27.2081L38.6079 47.0657C39.1332 47.33 39.6294 47.6816 40.067 48.1237C42.2221 50.308 42.2221 53.8483 40.067 56.0357C37.9111 58.2207 34.4178 58.2207 32.265 56.0357C30.1099 53.8483 30.1099 50.308 32.265 48.1237C32.7975 47.5847 33.4137 47.177 34.0709 46.9031V26.8605C33.4137 26.5881 32.7983 26.1828 32.265 25.6398C30.6321 23.9866 30.2395 21.5572 31.0761 19.5244L22.9138 11.2472L1.35881 33.1C-0.452651 34.9374 -0.452651 37.9146 1.35881 39.7504L32.7951 71.6217C34.605 73.4576 37.5406 73.4576 39.3529 71.6217L70.6422 39.8986C72.4529 38.062 72.4529 35.0832 70.6422 33.2474Z" fill="#DE4C36"/>
</g>
<defs>
<clipPath id="clip0_1_183">
<rect width="72" height="73" fill="white"/>
</clipPath>
</defs>
</svg>
