<svg width="126" height="124" viewBox="0 0 126 124" fill="none" xmlns="http://www.w3.org/2000/svg">
<path fill-rule="evenodd" clip-rule="evenodd" d="M64.0747 2.58328C34.4416 2.55362 9.16796 23.695 4.42333 52.4813C-0.32128 81.2679 16.8661 109.188 44.9894 118.378C48.0282 118.925 49.1029 117.065 49.1029 115.496C49.1029 113.928 49.1029 110.354 49.1029 105.394C32.2411 109.005 28.6835 97.4065 28.6835 97.4065C27.5649 93.8121 25.1884 90.724 21.9759 88.6904C16.5282 85.0432 22.4206 85.0432 22.4206 85.0432C26.2899 85.5811 29.6928 87.8405 31.6482 91.1704C33.3043 94.1257 36.0881 96.3097 39.3844 97.2407C42.6807 98.1712 46.2178 97.7718 49.2141 96.1304C49.4467 93.1301 50.761 90.3101 52.92 88.1799C39.5047 86.6847 25.4223 81.5785 25.4223 59.0032C25.3302 53.106 27.5461 47.3995 31.6111 43.0656C29.8007 37.938 30.0122 32.3282 32.2041 27.3468C32.2041 27.3468 37.2811 25.7421 48.8065 33.4374C58.7034 30.7632 69.1493 30.7632 79.0466 33.4374C90.5719 25.7421 95.6119 27.3468 95.6119 27.3468C97.8343 32.2755 98.0983 37.845 96.3527 42.9562C100.418 47.2901 102.634 52.9965 102.542 58.8937C102.542 81.7247 88.4226 86.7208 74.97 88.0704C77.8885 90.9575 79.3894 94.9498 79.0834 99.0113C79.0834 106.962 79.0834 113.381 79.0834 115.314C79.0834 117.247 80.158 118.742 83.234 118.158C111.023 108.731 127.874 80.976 123.141 52.4255C118.408 23.8756 93.4678 2.83015 64.0747 2.58328Z" fill="#758CA3"/>
</svg>
