<svg width="67" height="58" viewBox="0 0 67 58" fill="none" xmlns="http://www.w3.org/2000/svg">
<g clip-path="url(#clip0_1_175)">
<path d="M33.5003 0C15.001 0 0 13.2952 0 29.6962C0 42.8168 9.59885 53.9482 22.9095 57.8749C24.5838 58.1498 25.1984 57.2307 25.1984 56.4464C25.1984 55.7382 25.1674 53.399 25.1529 50.9175C15.8331 52.7139 13.8665 47.4138 13.8665 47.4138C12.3426 43.9813 10.1469 43.0686 10.1469 43.0686C7.10746 41.2255 10.3761 41.2634 10.3761 41.2634C13.7401 41.4729 15.5114 44.3236 15.5114 44.3236C18.4993 48.8635 23.3483 47.551 25.26 46.7922C25.5607 44.8729 26.4289 43.5628 27.3869 42.8213C19.9461 42.0703 12.1241 39.524 12.1241 28.1452C12.1241 24.9031 13.4327 22.254 15.5757 20.1743C15.2279 19.4264 14.0812 16.406 15.9003 12.3156C15.9003 12.3156 18.7134 11.5174 25.1152 15.3596C27.7875 14.7016 30.6533 14.3716 33.5003 14.3603C36.3473 14.3716 39.2153 14.7016 41.8925 15.3596C48.2866 11.5174 51.0959 12.3156 51.0959 12.3156C52.9193 16.406 51.7721 19.4264 51.4243 20.1743C53.5723 22.254 54.872 24.9031 54.872 28.1452C54.872 39.5511 47.0351 42.0625 39.5754 42.7976C40.7769 43.7192 41.8476 45.5264 41.8476 48.297C41.8476 52.2704 41.8088 55.4683 41.8088 56.4464C41.8088 57.2366 42.4118 58.1626 44.1099 57.871C57.4134 53.9399 67 42.8124 67 29.6962C67 13.2952 52.0012 0 33.5003 0ZM12.5469 42.3029C12.4732 42.4505 12.2113 42.4947 11.9728 42.3934C11.7298 42.2965 11.5933 42.0954 11.6721 41.9474C11.7442 41.7954 12.0066 41.7531 12.249 41.8549C12.4926 41.9518 12.6313 42.1549 12.5469 42.3029ZM14.1948 43.6063C14.035 43.7376 13.7227 43.6766 13.5108 43.4691C13.2917 43.2621 13.2506 42.9852 13.4126 42.852C13.5773 42.7207 13.8802 42.7821 14.0999 42.9892C14.319 43.1986 14.3618 43.4735 14.1948 43.6063ZM15.3253 45.274C15.12 45.4003 14.7844 45.2818 14.5769 45.0177C14.3717 44.7537 14.3716 44.437 14.5813 44.3101C14.7894 44.1832 15.12 44.2973 15.3303 44.5594C15.535 44.8279 15.535 45.1446 15.3253 45.274ZM17.2372 47.2053C17.0535 47.3848 16.6624 47.3366 16.3762 47.0917C16.0833 46.8522 16.0017 46.5124 16.1859 46.3329C16.3717 46.153 16.7651 46.2036 17.0535 46.4465C17.3442 46.6855 17.433 47.0278 17.2372 47.2053ZM19.7081 47.8573C19.6271 48.0899 19.2504 48.1956 18.871 48.0968C18.4921 47.995 18.2441 47.7226 18.3206 47.4875C18.3994 47.2534 18.7778 47.1433 19.16 47.249C19.5383 47.3503 19.7869 47.6208 19.7081 47.8573ZM22.5201 48.1339C22.5295 48.3788 22.2078 48.5819 21.8095 48.5863C21.4089 48.5942 21.085 48.396 21.0805 48.155C21.0805 47.9077 21.3951 47.7065 21.7956 47.7006C22.1939 47.6938 22.5201 47.8905 22.5201 48.1339ZM25.2826 48.04C25.3303 48.279 25.0535 48.5244 24.6579 48.5898C24.2691 48.6527 23.909 48.5052 23.8597 48.2682C23.8114 48.0233 24.0932 47.7779 24.4815 47.7145C24.8776 47.6535 25.2321 47.7971 25.2826 48.04Z" fill="#161614"/>
</g>
<defs>
<clipPath id="clip0_1_175">
<rect width="67" height="58" fill="white"/>
</clipPath>
</defs>
</svg>
