<svg width="58" height="57" viewBox="0 0 58 57" fill="none" xmlns="http://www.w3.org/2000/svg">
<g clip-path="url(#clip0_1_178)">
<path d="M57.9096 27.263C57.976 28.8732 57.7889 30.4773 57.3542 32.0259C56.9256 33.5744 56.2495 35.0366 55.3561 36.363C54.4685 37.6903 53.3757 38.8614 52.1204 39.8303L52.0903 39.8549L40.023 49.0969L34.0889 53.6931L30.4729 56.4817C30.2617 56.6483 30.0262 56.7717 29.7787 56.8581C29.5312 56.9445 29.2656 56.9876 29 56.9876C28.7404 56.9876 28.4748 56.9445 28.2273 56.8581C27.9798 56.7717 27.7444 56.6483 27.5331 56.4817L23.9171 53.6931L17.9831 49.0969L5.98821 39.9105L5.91577 39.8611L5.89162 39.8364C4.62996 38.8678 3.53732 37.6956 2.64389 36.3692C1.75047 35.0427 1.07436 33.5744 0.63972 32.0259C0.20508 30.4773 0.0179428 28.8671 0.0843462 27.2568C0.156786 25.6466 0.47673 24.061 1.03814 22.5557L1.11662 22.3397L9.00654 1.3326C9.04679 1.22978 9.09508 1.13107 9.15142 1.03647C9.20374 0.941868 9.26612 0.853438 9.33856 0.771178C9.40698 0.684805 9.48143 0.604602 9.56192 0.530568C9.64241 0.460647 9.72692 0.394839 9.81546 0.333144C10.0026 0.215924 10.1958 0.129551 10.4071 0.0801947C10.6123 0.0246692 10.8296 -8.76389e-06 11.0409 0.0123302C11.2582 0.0246692 11.4695 0.0678557 11.6687 0.148059C11.8679 0.222093 12.0611 0.333144 12.2301 0.468873C12.3106 0.538794 12.3891 0.612828 12.4656 0.690975C12.538 0.773235 12.6024 0.861664 12.6587 0.956263C12.7191 1.04675 12.7714 1.1434 12.8157 1.24623C12.86 1.34494 12.8962 1.44777 12.9243 1.5547L18.2426 18.1938H39.7694L45.0877 1.5547C45.1159 1.44777 45.1541 1.34494 45.2024 1.24623C45.2467 1.14752 45.299 1.05086 45.3594 0.956263C45.4157 0.865777 45.4801 0.779404 45.5525 0.697144C45.625 0.614885 45.7035 0.538794 45.788 0.468873C45.957 0.333144 46.1441 0.228263 46.3433 0.148059C46.5486 0.0740252 46.7599 0.0308387 46.9712 0.0184997C47.1885 0.00616074 47.3998 0.0246692 47.6111 0.0801947C47.8163 0.13572 48.0155 0.222093 48.1966 0.339314C48.2892 0.396896 48.3757 0.462704 48.4562 0.536738C48.5367 0.606658 48.6111 0.684805 48.6795 0.771178C48.748 0.857551 48.8103 0.948037 48.8667 1.04264C48.919 1.13724 48.9653 1.23595 49.0055 1.33877L56.8834 22.3521L56.9619 22.568C57.5233 24.0672 57.8432 25.6528 57.9096 27.263Z" fill="#E24329"/>
<path d="M57.9157 27.2692C57.9821 28.8732 57.7949 30.4835 57.3603 32.032C56.9256 33.5806 56.2495 35.0489 55.3561 36.3754C54.4627 37.7018 53.37 38.874 52.1144 39.8426L52.0842 39.8673L40.0169 49.1092C40.0169 49.1092 34.8918 45.1545 29 40.5953L46.2951 27.2198C47.0738 26.6214 47.8887 26.0723 48.7278 25.5664C49.5669 25.0543 50.4362 24.5978 51.3236 24.1906C52.217 23.7834 53.1286 23.4194 54.0522 23.1171C54.9818 22.8086 55.9236 22.5557 56.8834 22.3521L56.9619 22.568C57.5233 24.0734 57.8432 25.6589 57.9157 27.2692Z" fill="#FC6D26"/>
<path d="M29 40.5953C34.8918 45.1422 40.023 49.1092 40.023 49.1092L34.0889 53.7055L30.473 56.4941C30.2617 56.6607 30.0263 56.7841 29.7787 56.8704C29.5312 56.9568 29.2656 57 29 57C28.7404 57 28.4748 56.9568 28.2273 56.8704C27.9798 56.7841 27.7444 56.6607 27.5331 56.4941L23.9171 53.7055L17.9831 49.1092C17.9831 49.1092 23.1082 45.1422 29 40.5953Z" fill="#FCA326"/>
<path d="M29 40.583C23.1022 45.1422 17.9831 49.0969 17.9831 49.0969L5.98821 39.9105L5.91577 39.8611L5.89162 39.8365C4.62996 38.8678 3.53732 37.6956 2.64389 36.3692C1.75047 35.0427 1.07436 33.5744 0.63972 32.0259C0.20508 30.4773 0.0179428 28.8671 0.0843462 27.2568C0.156786 25.6466 0.47673 24.061 1.03814 22.5557L1.11662 22.3398C2.07645 22.5433 3.01817 22.7963 3.94782 23.1048C4.87143 23.4132 5.78296 23.7711 6.67639 24.1844C7.56378 24.5916 8.43306 25.0543 9.27216 25.5602C10.1113 26.0661 10.9202 26.6214 11.7049 27.2198L29 40.583Z" fill="#FC6D26"/>
</g>
<defs>
<clipPath id="clip0_1_178">
<rect width="58" height="57" fill="white"/>
</clipPath>
</defs>
</svg>
