<svg width="73" height="82" viewBox="0 0 73 82" fill="none" xmlns="http://www.w3.org/2000/svg">
<path d="M15.2737 75.0378L10.5525 15.551H62.4069L57.6798 75.0423L36.4671 81.648L15.2737 75.0378Z" fill="#E34E26"/>
<path d="M36.4796 20.4133V76.5949L53.6328 71.254L57.6743 20.4133H36.4796Z" fill="#EF662A"/>
<path d="M20.212 27.7101L21.9629 49.7733H44.4753L43.7197 59.2367L36.4713 61.438L29.2366 59.2397L28.7529 53.1635H22.2332L23.1655 64.8767L36.4696 69.0275L49.791 64.8767L51.5768 42.4784H27.9034L27.3091 35.0068H52.1454H52.1655L52.7472 27.7101H20.212Z" fill="white"/>
<path d="M36.4796 27.7101H20.212L21.9629 49.7733H36.4796V42.4784H27.9034L27.3091 35.0068H36.4796V27.7101Z" fill="#EBEBEB"/>
<path d="M36.4796 61.4348L36.4713 61.438L29.2366 59.2397L28.7529 53.1635H22.2332L23.1655 64.8767L36.4696 69.0275L36.4796 69.0243V61.4348Z" fill="#EBEBEB"/>
</svg>
