<svg width="64" height="56" viewBox="0 0 64 56" fill="none" xmlns="http://www.w3.org/2000/svg">
<path d="M13.879 8.93419C10.203 13.5564 10.6605 19.5707 13.469 24.4829L13.6745 24.8321L13.806 25.0534L13.888 25.1807L14.0345 25.41C14.1215 25.5443 14.211 25.6777 14.3025 25.8121L14.4555 26.0326C14.557 26.1752 14.6605 26.3169 14.7665 26.4583L14.899 26.6372C15.0455 26.8284 15.195 27.0187 15.3495 27.2064L15.3625 27.2208L15.4385 27.3105C15.572 27.4715 15.7095 27.6307 15.849 27.7887L16.0035 27.9606C16.128 28.0976 16.2545 28.2332 16.383 28.3693L16.528 28.5206C16.7005 28.6983 16.877 28.8759 17.0565 29.0491L17.067 29.0587L17.0875 29.0784C17.263 29.246 17.4425 29.4101 17.625 29.5741L17.797 29.7259C17.938 29.8502 18.0815 29.9722 18.226 30.0939L18.4015 30.24C18.595 30.3992 18.79 30.5559 18.9895 30.7081L18.9985 30.7151L19.101 30.7912C19.2765 30.9247 19.455 31.0559 19.635 31.1859L19.856 31.3403C20.003 31.4431 20.1515 31.5451 20.301 31.6448L20.5395 31.8027C20.7045 31.9091 20.871 32.0136 21.039 32.1164L21.2205 32.2293L21.271 32.2608C21.43 32.3571 21.5935 32.4494 21.756 32.5417L21.966 32.6642C22.216 32.802 22.4695 32.9389 22.7255 33.0711L22.9355 33.1747C23.124 33.2697 23.3135 33.3633 23.5055 33.4543L23.821 33.5969L24.229 33.7824L24.323 33.8222L24.49 33.8927C24.7035 33.9819 24.919 34.0699 25.1365 34.1547L25.273 34.2081C25.522 34.3035 25.7735 34.3949 26.027 34.4829L26.211 34.5459C26.4455 34.6255 26.6835 34.7029 26.9225 34.7764L27.012 34.8036C27.274 34.8841 27.539 34.958 27.8055 35.0311L27.997 35.0809C28.268 35.1527 28.5365 35.2376 28.816 35.2831C46.5925 38.1194 51.756 25.9363 51.756 25.9363C47.419 30.8801 39.7215 32.1838 32.428 30.7322C32.1515 30.6775 31.8835 30.6018 31.614 30.5327L31.411 30.4784C31.148 30.408 30.8865 30.3341 30.627 30.2553L30.5195 30.2216C30.287 30.1499 30.0575 30.0746 29.8285 29.9972L29.6345 29.9307C29.384 29.8441 29.1345 29.7535 28.8885 29.6594L28.7395 29.6012C28.528 29.5177 28.3185 29.4332 28.11 29.3453L27.928 29.2687C27.7645 29.1992 27.603 29.1252 27.441 29.0522L27.1165 28.903C26.919 28.8111 26.7255 28.7149 26.533 28.6169L26.336 28.5211C26.0795 28.3885 25.8265 28.252 25.576 28.1133L25.371 27.9939C25.1895 27.8915 25.0085 27.7869 24.8305 27.6793L24.656 27.5721C24.484 27.4662 24.3135 27.3582 24.145 27.2492L23.9185 27.0992C23.7635 26.9955 23.6095 26.8909 23.4575 26.7838L23.252 26.6394C23.058 26.5002 22.8665 26.3594 22.6775 26.2154L22.6145 26.1695C22.41 26.0124 22.209 25.851 22.0105 25.6891L21.8405 25.5456C21.6935 25.4236 21.5485 25.3002 21.4065 25.1733L21.2365 25.0246C21.0555 24.8627 20.878 24.6986 20.704 24.5319L20.6775 24.507C20.4935 24.3311 20.3135 24.1513 20.1375 23.9693L19.996 23.8223C19.8645 23.6841 19.7345 23.5432 19.6075 23.4019L19.465 23.2466C19.3115 23.0729 19.1625 22.8996 19.016 22.7237C14.967 17.8907 13.512 11.2249 16.7485 5.75094M25.289 5.03956C22.631 8.38644 22.775 12.8677 24.849 16.4071C25.1965 17.0004 25.5875 17.5766 26.0245 18.1243C26.4225 18.6244 26.8645 19.2185 27.393 19.6197C27.5845 19.8043 27.785 19.9846 27.9895 20.1613L28.1465 20.2974C28.345 20.4658 28.547 20.6316 28.7555 20.7926L28.7805 20.8114L28.7865 20.8167C29.0175 20.9939 29.256 21.1641 29.498 21.3321L29.6595 21.4423C29.9025 21.6051 30.15 21.7652 30.404 21.9179L30.4255 21.9323L30.7655 22.1279L30.9265 22.2211C31.108 22.323 31.2915 22.4219 31.4785 22.5168L31.5565 22.5571C31.7175 22.638 31.8805 22.7176 32.044 22.7955L32.2175 22.8742L32.5585 23.0291L32.61 23.0497C32.8445 23.1503 33.0805 23.2479 33.322 23.3397L33.479 23.3966C33.672 23.4679 33.8665 23.5379 34.0625 23.6036L34.3125 23.6841C34.4905 23.7418 34.6685 23.7947 34.8485 23.8472L35.0905 23.9151C35.346 23.9842 35.599 24.0721 35.865 24.1111C49.59 26.1004 52.7585 16.8538 52.7585 16.8538C49.9025 20.4536 44.371 22.1707 38.4685 20.8302C38.2065 20.7699 37.9475 20.7042 37.691 20.6338L37.4575 20.5678C37.275 20.5166 37.0935 20.4614 36.914 20.4041L36.6685 20.3241C36.4715 20.2576 36.2765 20.1889 36.083 20.1171L35.9255 20.0589C35.683 19.9666 35.4445 19.8691 35.2095 19.7676L34.8505 19.6079L34.6435 19.5147C34.4905 19.4421 34.3385 19.3668 34.189 19.2898L34.0805 19.236C33.8945 19.1411 33.7115 19.0435 33.5305 18.942L33.3645 18.8453L33.0085 18.6388C32.7555 18.4861 32.509 18.3264 32.2665 18.1641L32.0995 18.0486C29.516 16.2641 27.468 13.8246 26.4945 11.0587C25.474 8.19 25.694 4.97 27.462 2.35637M34.8855 2.12975C33.3185 4.1475 33.1645 6.65394 34.252 8.88256C35.3985 11.2481 37.748 13.1036 40.4905 13.9838L40.8315 14.0866L40.9815 14.1286C41.143 14.1732 41.3035 14.2249 41.4705 14.252C49.049 15.5334 51.1045 10.8496 51.6515 10.1596C49.851 12.4281 46.825 12.9727 43.112 12.1839C42.819 12.1218 42.4965 12.0291 42.214 11.9411C41.8515 11.8278 41.4945 11.6992 41.147 11.5535C40.488 11.2761 39.8595 10.9401 39.2765 10.5551C35.954 8.34925 33.8905 4.14181 36.0585 0.714874" fill="#0868AC"/>
<path d="M33.1795 42.1291H31.0665C30.9495 42.1291 30.833 42.2113 30.808 42.3115L30.058 45.3477L29.308 48.384C29.2835 48.4842 29.167 48.5664 29.05 48.5664H27.5545C26.075 48.5664 26.246 47.6709 26.549 46.4441L26.558 46.4069L26.591 46.2521L26.597 46.2232L26.6645 45.9082L26.737 45.5709L26.814 45.2274L27.155 43.7697L27.4965 42.3119C27.52 42.2113 27.443 42.1286 27.326 42.1286H25.1575C25.0405 42.1286 24.9245 42.2109 24.9005 42.3115L24.434 44.247L23.968 46.1829L23.967 46.1856L23.924 46.3658C23.387 48.5109 23.529 50.5571 26.448 50.6214L26.533 50.6227H31.1145C31.2315 50.6227 31.348 50.5404 31.3725 50.4402L32.3605 46.3763L33.3485 42.3119C33.373 42.2113 33.297 42.1295 33.1795 42.1291ZM10.5515 42.1076H8.23149C8.11399 42.1076 7.99699 42.1899 7.97099 42.2896L7.75099 43.1392L7.53099 43.9889C7.50549 44.0891 7.57999 44.1709 7.69749 44.1709H10.0355C10.153 44.1709 10.2695 44.0886 10.2945 43.9884L10.507 43.1392L10.7195 42.2901C10.744 42.1899 10.669 42.1076 10.5515 42.1076ZM9.87849 44.7519H7.53999C7.42299 44.7519 7.30549 44.8341 7.27949 44.9339L6.95099 46.207L6.62299 47.4797L6.53149 47.8446L6.21599 49.1439L5.90099 50.4437C5.87649 50.5439 5.82599 50.7058 5.78849 50.8029C5.78849 50.8029 5.35149 51.9404 4.61699 51.9273L4.52499 51.9256L3.88949 51.9155C3.77249 51.9142 3.65449 51.9942 3.62699 52.0936L3.38449 52.9856L3.14249 53.8772C3.11499 53.977 3.18899 54.0592 3.30549 54.061C3.72199 54.0654 4.65499 54.0746 5.21949 54.0746C7.05399 54.0746 8.02149 53.1851 8.64099 50.6257L9.36649 47.6884L10.047 44.9334C10.0715 44.8341 9.99549 44.7519 9.87849 44.7519ZM52.937 44.0632L52.84 43.7128L52.7445 43.3541L52.696 43.1729C52.506 42.5267 51.9485 42.1544 50.7375 42.1544L48.8525 42.1527L47.1165 42.1505H45.163C45.046 42.1505 44.93 42.2327 44.9055 42.3329L44.819 42.6899L44.717 43.1117L44.6885 43.2302L43.809 46.8352L42.974 50.2574C42.949 50.358 42.941 50.4814 42.955 50.5312C42.969 50.5816 43.1945 50.6227 43.3115 50.6227H45.0735C45.191 50.6227 45.3395 50.6043 45.4035 50.5816C45.4675 50.5588 45.562 50.3571 45.5855 50.2569L45.8985 48.9011L46.212 47.5449L46.2125 47.5427L46.2545 47.362L46.6345 45.8045L46.97 44.429C46.995 44.3288 47.1105 44.247 47.2275 44.2466L52.772 44.2444C52.8895 44.2452 52.9635 44.1634 52.937 44.0632ZM60.0745 40.8957L59.6475 40.8971H57.873C57.7555 40.8971 57.605 40.9666 57.5395 41.0515L53.615 46.0819C53.549 46.1667 53.4735 46.1545 53.4475 46.0547L53.1585 44.9466C53.1325 44.8464 53.015 44.7646 52.8975 44.7646H50.375C50.2575 44.7646 50.188 44.8451 50.22 44.9435L51.3505 48.4089C51.3825 48.5078 51.385 48.6697 51.356 48.7694L50.8635 50.4464C50.834 50.5461 50.906 50.6271 51.0235 50.6271H53.517C53.634 50.6271 53.754 50.5457 53.783 50.4464L54.276 48.7694C54.305 48.6692 54.3865 48.5214 54.4575 48.4391L60.8285 41.0406C60.8995 40.9583 60.861 40.8914 60.744 40.8922L60.0745 40.8957ZM40.0315 45.2353V45.2336C40.017 45.3447 39.8995 45.4265 39.782 45.4265H36.5835C36.4725 45.4265 36.4165 45.3609 36.433 45.2795L36.436 45.2729L36.434 45.2738L36.4355 45.2646L36.45 45.2169C36.7555 44.5064 37.3775 44.0401 38.547 44.0401C39.864 44.0396 40.121 44.6022 40.0315 45.2353ZM39.093 42.0048C34.9875 42.0048 34.0145 44.1853 33.4685 46.3864C32.923 48.6299 32.9695 50.7268 37.2185 50.7268H37.7335L37.8615 50.7264H37.8915L38.4015 50.7251H38.4105C39.5325 50.7211 40.658 50.7137 41.1135 50.7106C41.23 50.7089 41.344 50.6271 41.368 50.5269L41.54 49.7914L41.5735 49.6484L41.7785 48.7707C41.802 48.6706 41.7255 48.5879 41.608 48.5879H37.7885C36.269 48.5879 35.818 48.2348 35.9845 47.1962H42.09L42.0895 47.1966L42.0935 47.1962C42.1905 47.1949 42.2805 47.1362 42.316 47.0584L42.3305 47.012L42.33 47.0124C43.2365 44.0204 42.9765 42.0052 39.093 42.0048ZM19.688 45.2239L19.63 45.4029L19.169 46.8331L18.708 48.2624C18.6765 48.3617 18.554 48.4422 18.4365 48.4422H15.9965C14.1455 48.4422 13.6945 47.1752 14.1455 45.3071C14.596 43.3961 15.4795 42.2082 17.3015 42.0879C19.7915 41.9234 20.2895 43.4556 19.688 45.2239ZM21.362 48.3324C21.362 48.3324 22.5125 45.8876 22.7735 44.4762C23.13 42.5867 22.0485 39.8453 17.8715 39.8453C13.7185 39.8453 11.9145 42.462 11.2265 45.3071C10.5385 48.1727 11.44 50.6852 15.5695 50.6647L18.8275 50.6542L21.872 50.6446C21.989 50.6437 22.109 50.5623 22.139 50.4634L22.6695 48.6933C22.699 48.5936 22.6275 48.5122 22.51 48.5113L22.0015 48.5087L21.493 48.5061C21.3935 48.5056 21.3365 48.4487 21.3485 48.3739L21.362 48.3324ZM41.922 46.6957C41.922 46.7635 41.8595 46.8186 41.782 46.8186C41.705 46.8186 41.642 46.7635 41.642 46.6957C41.642 46.6283 41.7045 46.5736 41.782 46.5736C41.8595 46.5736 41.922 46.6283 41.922 46.6957Z" fill="#131B28"/>
</svg>
