<svg width="140" height="140" viewBox="0 0 140 140" fill="none" xmlns="http://www.w3.org/2000/svg">
<path d="M131.25 70C131.25 36.1726 103.827 8.75 70 8.75C36.1726 8.75 8.75 36.1726 8.75 70C8.75 103.827 36.1726 131.25 70 131.25C103.827 131.25 131.25 103.827 131.25 70Z" fill="#1275B1"/>
<path d="M55.2064 42.4032C55.2064 46.4918 51.6622 49.8063 47.2907 49.8063C42.9189 49.8063 39.375 46.4918 39.375 42.4032C39.375 38.3145 42.9189 35 47.2907 35C51.6622 35 55.2064 38.3145 55.2064 42.4032Z" fill="white"/>
<path d="M40.4575 55.248H53.9884V96.2501H40.4575V55.248Z" fill="white"/>
<path d="M75.7732 55.248H62.2422V96.2501H75.7732C75.7732 96.2501 75.7732 83.3421 75.7732 75.2715C75.7732 70.4271 77.4274 65.5617 84.0271 65.5617C91.4856 65.5617 91.441 71.901 91.406 76.8124C91.3605 83.2319 91.469 89.7834 91.469 96.2501H105V74.61C104.885 60.7925 101.285 54.4255 89.4394 54.4255C82.4049 54.4255 78.0443 57.6193 75.7732 60.5085V55.248Z" fill="white"/>
</svg>
