<svg width="109" height="110" viewBox="0 0 109 110" fill="none" xmlns="http://www.w3.org/2000/svg">
<path d="M0 58.6034C0.936196 56.5114 2.17331 57.0195 3.39371 57.2586C4.27975 57.4678 5.13236 57.8563 6.03512 57.8563C6.60353 57.8861 6.97132 57.4678 7.33911 56.7505C8.04126 55.3758 8.54279 53.7322 9.27837 52.4172C10.4653 50.2954 11.8362 48.7713 13.4411 47.7851C16.1327 46.1116 18.8911 44.7668 21.5492 42.8542C23.7894 41.2105 25.4946 38.5806 26.6983 34.8152C27.4841 32.3646 28.2531 29.8842 29.2227 27.613C30.5434 24.6245 32.2486 23.0705 34.3718 23.1004C35.4919 23.1303 36.4615 22.2636 37.4479 21.5464C37.5314 21.5464 37.615 21.5464 37.6986 21.5464C38.1166 21.8153 38.2503 22.413 38.2503 23.1602C38.2503 25.1923 37.8658 26.9555 36.9965 28.2704C36.4114 29.1371 35.7928 29.944 35.1742 30.721C34.3216 31.7968 33.8034 33.2014 33.5526 35.0244C33.0678 38.76 32.6833 42.5553 32.0146 46.261C31.4294 49.5483 30.7106 52.7161 29.3397 55.3161C28.9218 56.1229 28.437 56.7804 27.8853 57.3183C27.5676 57.5873 27.4005 57.5873 27.4506 56.8402C27.4841 56.2724 27.484 55.7046 27.4172 55.1069C27.2333 55.8241 27.0661 56.5114 26.8822 57.2287C25.6451 61.7114 23.8229 64.8791 21.031 66.0148C20.9975 66.0447 20.9474 66.0745 20.914 66.0745C20.5963 66.1343 20.1617 66.4332 20.0112 66.0148C19.8273 65.4768 20.2954 65.1481 20.4626 64.7297C21.8 61.6516 22.7362 58.3045 22.9201 54.3299C22.7195 54.3 22.7362 54.5988 22.7028 54.7483C22.6526 54.8977 22.6192 55.1069 22.5857 55.2862C22.4018 56.1827 22.2514 57.0793 21.9672 57.8861C21.683 58.7229 21.2817 59.1413 20.7301 59.1712C19.2923 59.2309 17.8546 58.9321 16.4503 58.5735C15.1965 58.2746 13.9259 58.0953 12.6554 58.2746C11.2176 58.4539 9.9638 59.6195 8.81028 61.024C7.47285 62.6378 6.05184 63.9527 4.59739 65.1481C3.9454 65.686 3.24325 66.0447 2.55782 66.3734C2.03957 66.3734 1.55475 66.3734 1.0365 66.3734C0.819172 65.7757 0.919479 65.2079 1.10337 64.6998C1.37086 63.9826 1.63834 63.2654 1.92255 62.578C2.07301 62.2194 2.22347 61.8608 1.92255 61.5321C1.25383 60.8148 0.735583 59.7091 0.0167179 59.1413C6.35242e-08 58.9321 0 58.7528 0 58.6034Z" fill="#24525E"/>
<path d="M100.307 49.3093C99.8888 52.0288 99.2034 52.9851 97.6152 53.254C95.8264 53.523 94.0208 53.3138 92.232 53.4035C91.8141 53.4333 91.6135 53.1345 91.6302 52.3276C91.6469 47.4863 91.6469 42.645 91.6302 37.8335C91.6302 37.2359 91.7138 36.7876 92.115 36.7876C94.0376 36.8474 95.9768 36.5186 97.8827 36.9968C99.4374 37.3853 100.223 39.3577 99.9222 42.0772C99.7885 43.2726 99.3873 44.0794 98.6182 44.6174C99.6882 45.2151 100.123 46.5001 100.307 48.1438C100.307 48.5621 100.307 48.9506 100.307 49.3093ZM95.0239 51.7299C95.8264 51.7299 96.6288 51.7897 97.4146 51.5506C98.3675 51.2816 98.869 50.415 98.9024 48.8311C98.9359 47.038 98.5347 46.0518 97.5316 45.7231C96.1106 45.2748 94.6728 45.6036 93.2351 45.5438C92.9175 45.5139 92.8673 45.9323 92.8673 46.3806C92.8673 47.8449 92.884 49.3391 92.8673 50.7736C92.8506 51.461 93.0011 51.7299 93.3856 51.7C93.9205 51.7 94.4722 51.7299 95.0239 51.7299ZM95.258 43.8404C95.258 43.8105 95.258 43.7806 95.258 43.7806C95.91 43.7806 96.562 43.8404 97.2307 43.7507C98.2672 43.6013 98.7353 42.5254 98.635 40.7025C98.5514 39.2979 98.0498 38.5508 97.0635 38.491C95.8264 38.4312 94.606 38.4611 93.3856 38.4611C93.0512 38.4611 92.8673 38.6404 92.8673 39.2979C92.884 40.5232 92.884 41.7186 92.8673 42.9438C92.8506 43.6611 93.0679 43.8703 93.419 43.8404C94.0376 43.8404 94.6561 43.8404 95.258 43.8404Z" fill="#24525E"/>
<path d="M39.6379 42.3461C39.2534 45.0357 38.8856 47.6656 38.5178 50.2954C38.4677 50.6839 38.4175 51.0127 38.3673 51.4012C38.0831 53.523 38.0831 53.4632 36.846 53.4035C36.2943 53.3736 36.2107 53.015 36.3278 52.1483C36.9296 48.084 37.5147 44.0496 38.0831 39.9554C38.15 39.5071 38.2169 39.0887 38.2838 38.6404C38.5512 36.668 38.5512 36.7278 39.6713 36.7278C40.1562 36.7278 40.3233 37.206 40.4905 37.8634C41.3264 41.2404 42.1957 44.6174 43.0483 47.9943C43.1152 48.2633 43.1319 48.592 43.3827 48.8012C43.8006 47.1576 44.2019 45.5139 44.6198 43.8702C45.138 41.8082 45.6897 39.7462 46.1746 37.6542C46.4922 36.3094 47.1107 36.7876 47.6457 36.7278C48.164 36.668 48.1807 37.445 48.2643 38.0427C48.9497 42.7346 49.6184 47.4265 50.3038 52.0885C50.4543 53.0747 50.3038 53.4333 49.7522 53.3437C49.6686 53.3138 49.585 53.3437 49.5014 53.3437C48.515 53.3437 48.515 53.3437 48.2977 51.6701C47.9299 48.9506 47.5621 46.2311 47.1943 43.5116C47.1442 43.153 47.1275 42.7645 46.9603 42.4358C46.6928 42.8243 46.6259 43.3323 46.5089 43.7806C45.79 46.5897 45.0545 49.3989 44.3857 52.2678C44.135 53.3138 43.7338 53.3437 43.2155 53.4035C42.6973 53.4333 42.413 53.1046 42.2124 52.2379C41.5103 49.2794 40.758 46.3806 40.0057 43.4519C39.9388 43.0932 39.9054 42.645 39.6379 42.3461Z" fill="#24525E"/>
<path d="M56.8906 42.4358C57.0578 41.9875 56.8572 41.2702 57.2584 41.1806C57.7265 41.0909 58.2281 40.9116 58.6794 41.33C58.8466 41.4794 58.8132 41.8679 58.8132 42.1369C58.8132 45.5438 58.8132 48.9207 58.8299 52.3575C58.8299 53.0747 58.6627 53.4034 58.2615 53.4034C58.111 53.4034 57.9606 53.4034 57.8101 53.4034C57.2919 53.4632 56.8572 53.3735 56.9408 52.0885C54.6672 54.2701 52.661 53.8816 51.4908 51.1023C50.4543 48.6817 50.5379 44.976 51.6078 42.7944C52.5774 40.8818 55.0015 39.8956 56.8906 42.4358ZM54.8845 43.4518C53.614 43.4518 52.7446 44.976 52.7613 47.1874C52.7613 49.4587 53.6474 51.0425 54.9179 51.0425C56.1718 51.0425 57.0077 49.5782 57.0077 47.2771C57.0077 44.9162 56.1885 43.4518 54.8845 43.4518Z" fill="#24525E"/>
<path d="M76.1997 42.4059C76.3669 42.0473 76.1663 41.33 76.534 41.2404C77.0189 41.1209 77.5037 41.0013 77.9551 41.33C78.139 41.4795 78.1055 41.8381 78.1055 42.1369C78.1055 45.5737 78.1055 49.0104 78.1055 52.4471C78.1055 53.1345 77.9551 53.4333 77.5873 53.4333C77.4201 53.4333 77.2529 53.4333 77.069 53.4333C76.5842 53.4333 76.0659 53.523 76.2498 52.0885C74.1936 54.3 72.1038 54.0012 70.8834 51.4311C69.7801 49.1598 69.7299 45.3944 70.7664 43.1231C72.0035 40.4933 74.0097 40.2243 76.1997 42.4059ZM74.2103 43.4519C72.9063 43.422 72.037 44.976 72.0537 47.2472C72.0704 49.4288 72.9564 51.0127 74.1768 51.0724C75.4641 51.1023 76.3502 49.5782 76.3669 47.307C76.3836 45.0357 75.4975 43.4817 74.2103 43.4519Z" fill="#24525E"/>
<path d="M80.6132 45.0059C80.6132 42.6749 80.6132 40.314 80.6132 37.983C80.6132 37.2956 80.6633 36.7577 81.1482 36.7876C82.8032 36.8772 84.4583 36.5784 86.0966 36.9669C88.6043 37.5945 90.159 40.9117 90.0755 45.3346C89.9919 49.8472 88.3368 52.8655 85.8291 53.254C84.3078 53.4931 82.7865 53.3138 81.2652 53.4035C80.8138 53.4333 80.6299 53.1046 80.6299 52.2678C80.6299 49.8472 80.6132 47.4265 80.6132 45.0059ZM81.9339 44.976C81.9339 46.8288 81.9339 48.6817 81.9339 50.5345C81.9339 51.0127 81.9339 51.5506 82.285 51.5506C83.5722 51.5506 84.8595 51.8793 86.1468 51.3414C87.8854 50.5943 88.738 48.0541 88.6043 44.2587C88.504 41.2703 87.4508 39.2082 85.7957 38.7002C84.709 38.3715 83.6057 38.5807 82.5023 38.491C82.0509 38.4312 81.9005 38.76 81.9172 39.537C81.9506 41.33 81.9339 43.1829 81.9339 44.976Z" fill="#24525E"/>
<path d="M62.792 42.9438C63.5945 41.3898 64.4638 40.5829 65.6173 41.0312C65.8681 41.1208 66.2025 41.1507 66.0854 41.8082C65.9684 42.5254 66.0687 43.4817 65.4669 43.6909C65.3164 43.7507 65.1827 43.661 65.0155 43.6312C63.7282 43.4817 62.792 44.8863 62.7419 47.1874C62.7084 48.8012 62.7084 50.4449 62.7252 52.0586C62.7419 52.9851 62.558 53.4034 62.0063 53.4034C60.7859 53.4333 60.7859 53.4632 60.7859 51.2517C60.7859 48.2932 60.8026 45.3346 60.7692 42.4059C60.7525 41.3898 60.9698 41.0013 61.5215 41.1208C61.5883 41.1208 61.6552 41.1208 61.7221 41.1208C62.675 41.1208 62.675 41.1208 62.792 42.9438Z" fill="#24525E"/>
<path d="M66.9046 46.261C66.9046 44.9461 66.9213 43.6012 66.8879 42.2863C66.8712 41.3599 67.0885 41.0312 67.5733 41.1208C67.6402 41.1208 67.707 41.1208 67.7739 41.1208C68.8439 41.0909 68.8439 41.1208 68.8439 42.9737C68.8439 45.1254 68.8439 47.2771 68.8439 49.4288C68.8439 50.0265 68.8271 50.5046 69.2952 50.8035C69.6965 51.0724 69.6463 52.0885 69.6463 52.8057C69.6463 53.4034 69.312 53.3735 69.0612 53.4333C67.7405 53.8816 67.0216 52.9552 66.9213 50.5345C66.8544 49.1598 66.9046 47.7253 66.9046 46.261Z" fill="#24525E"/>
<path d="M67.8241 36.5186C68.4259 36.4887 68.8271 37.1761 68.8439 38.1921C68.8606 39.1783 68.4259 39.9852 67.8408 39.9852C67.2557 39.9852 66.8544 39.2381 66.8544 38.1921C66.8879 37.1462 67.239 36.5485 67.8241 36.5186Z" fill="#24525E"/>
</svg>
