<svg width="80" height="52" viewBox="0 0 80 52" fill="none" xmlns="http://www.w3.org/2000/svg">
<g clip-path="url(#clip0_1_161)">
<path d="M73.6402 40.0754C69.2907 40.0038 65.9197 40.2912 63.0925 41.0808C62.2769 41.2961 60.972 41.2964 60.8632 41.9783C61.2984 42.2657 61.3526 42.7324 61.7333 43.1272C62.3861 43.845 63.5274 44.8146 64.5605 45.3173C65.7021 45.8916 66.8441 46.4659 68.0399 46.9686C70.1604 47.8303 72.5528 48.3328 74.6188 49.1945C75.8153 49.6967 77.0108 50.3434 78.207 50.8819C78.8052 51.1688 79.1855 51.6357 79.9468 51.8152V51.7075C79.5662 51.3843 79.4574 50.9177 79.0771 50.5587C78.5337 50.1997 77.9897 49.8765 77.446 49.5175C75.8692 48.1175 73.912 46.8968 71.7915 45.8916C70.052 45.1017 66.2458 44.0247 65.5391 42.6963C65.5391 42.6963 65.4845 42.6605 65.4303 42.6247C66.6265 42.5529 68.0399 42.2657 69.1819 42.0502C71.0306 41.727 72.7159 41.7988 74.6188 41.4759C75.4885 41.3322 76.3586 41.1527 77.2284 40.9732V40.6502C76.2502 40.0038 75.5431 39.1423 74.51 38.532C71.7373 36.952 68.6924 35.4085 65.5391 34.1162C63.8534 33.3982 61.6787 32.9313 59.8846 32.3212C59.2325 32.1054 58.1447 31.998 57.7644 31.639C56.7855 30.8491 56.2418 29.8081 55.5351 28.8746C53.959 26.8998 52.436 24.7102 51.0768 22.628C50.0986 21.2278 49.5003 19.8275 48.3041 18.5352C42.7042 12.4321 36.6148 8.73437 27.2633 5.10827C25.2516 4.35444 22.8596 4.03125 20.3042 3.63643C18.9453 3.60039 17.5857 3.52878 16.2265 3.49274C15.3567 3.24139 14.4866 2.55941 13.7253 2.23622C10.6269 0.943655 2.6343 -1.85633 0.350745 1.8414C-1.11728 4.17495 2.5255 6.47245 3.7759 7.65735C4.70058 8.48302 5.89642 9.41634 6.54892 10.3499C6.92957 10.9598 7.03803 11.6064 7.41868 12.2526C8.28879 13.8319 9.10398 15.5913 10.2459 17.0634C10.8442 17.8172 11.4963 18.6071 12.2576 19.289C12.6925 19.6839 13.4535 19.8636 13.6169 20.5098C12.8559 21.2278 12.8013 22.3048 12.3661 23.2023C10.409 27.259 11.1703 32.2851 13.9429 35.2648C14.8127 36.1621 16.879 38.1371 19.6517 37.3831C22.0983 36.7369 21.5546 34.6905 22.2613 32.8955C22.4247 32.4644 22.3159 32.1775 22.642 31.8903C22.6422 31.9261 22.642 31.9622 22.642 31.9622C23.4033 32.9673 24.1642 33.9367 24.8709 34.9419C26.5566 36.7009 29.4923 38.5319 31.9389 39.7527C33.2442 40.3986 34.277 41.5117 35.9081 41.9067V41.7988H35.7993C35.4729 41.4756 34.9837 41.3321 34.5489 41.0808C33.5703 40.4346 32.4826 39.6448 31.7216 38.9268C29.4384 36.9162 27.4263 34.6905 25.6322 32.3928C24.7625 31.28 24.0012 30.0592 23.2945 28.9464C22.968 28.5153 22.968 27.8694 22.4243 27.6541C21.6088 28.4437 20.413 29.1259 19.8147 30.0953C18.7823 31.639 18.6731 33.5417 18.2925 35.5162C18.0752 35.5522 18.1836 35.5162 18.0748 35.588C16.3353 35.3007 15.737 34.1162 15.0845 33.1108C13.4535 30.562 13.1816 26.4692 14.5954 23.5255C14.9761 22.7715 16.6071 20.4021 15.9546 19.6841C15.6286 19.0019 14.5409 18.6071 13.9429 18.0686C13.2362 17.3863 12.4749 16.5249 11.9858 15.7708C10.6808 13.7605 10.0283 11.5346 8.61486 9.52401C7.96237 8.59045 6.82076 7.62132 5.89642 6.75984C4.86362 5.79047 3.72167 5.10827 2.90612 3.9594C2.63462 3.56458 2.25363 2.91842 2.68851 2.48756C2.79732 2.2004 3.01459 2.09274 3.44981 2.0209C4.15654 1.62585 6.16825 2.12855 6.87497 2.34387C8.88668 2.88215 10.572 3.38508 12.2576 4.1389C13.0186 4.49791 13.8341 5.18011 14.8127 5.35962H15.9546C17.6945 5.61074 19.6516 5.43146 21.2827 5.75443C24.1645 6.36456 26.7738 7.26231 29.112 8.23167C36.2345 11.2114 42.1059 15.4478 46.0751 20.5098C46.7276 21.3352 46.9991 22.0895 47.5974 22.951C48.7393 24.7102 50.1528 26.5052 51.2944 28.2284C52.436 29.9156 53.5234 31.639 55.1544 33.0392C55.9703 33.7928 59.2321 34.1878 60.7001 34.5829C61.7875 34.9059 63.4731 35.1932 64.4517 35.5881C66.3 36.3417 68.1487 37.2036 69.8886 38.0293C70.7587 38.4599 73.4768 39.3576 73.6402 40.0754Z" fill="#00546B"/>
<path d="M18.1833 8.87762C17.2589 8.87762 16.6068 8.9497 15.9543 9.05736C15.9543 9.05736 15.9543 9.0934 15.9543 9.12921H16.0631C16.4983 9.70352 17.2589 10.0986 17.8026 10.601C18.2378 11.1754 18.6182 11.7499 19.0534 12.3245C19.1076 12.2884 19.1618 12.2526 19.1618 12.2526C19.9235 11.8934 20.3038 11.3191 20.3038 10.4576C19.9774 10.2062 19.9231 9.95487 19.6513 9.70352C19.3252 9.34429 18.6181 9.16501 18.1833 8.87762Z" fill="#00546B"/>
</g>
<defs>
<clipPath id="clip0_1_161">
<rect width="80" height="52" fill="white"/>
</clipPath>
</defs>
</svg>
