<svg width="92" height="57" viewBox="0 0 92 57" fill="none" xmlns="http://www.w3.org/2000/svg">
<g clip-path="url(#clip0_1_86)">
<path d="M45.4808 56.8356C45.1693 56.8356 44.8785 56.7517 44.6086 56.6048L41.8465 54.9474C41.4311 54.7166 41.6388 54.6327 41.7634 54.5907C42.3241 54.4019 42.428 54.3599 43.0095 54.0242C43.0718 53.9823 43.1548 54.0033 43.2171 54.0452L45.3354 55.325C45.4185 55.367 45.5223 55.367 45.5846 55.325L53.8709 50.4786C53.9539 50.4366 53.9955 50.3527 53.9955 50.2478V40.5759C53.9955 40.471 53.9539 40.387 53.8709 40.3451L45.5846 35.5196C45.5016 35.4777 45.3977 35.4777 45.3354 35.5196L37.0492 40.3451C36.9661 40.387 36.9246 40.492 36.9246 40.5759V50.2478C36.9246 50.3317 36.9661 50.4366 37.0492 50.4786L39.3129 51.8003C40.5381 52.4297 41.3065 51.6954 41.3065 50.9611V41.4151C41.3065 41.2892 41.4104 41.1633 41.5557 41.1633H42.6149C42.7395 41.1633 42.8641 41.2682 42.8641 41.4151V50.9611C42.8641 52.6186 41.9711 53.5837 40.4135 53.5837C39.9359 53.5837 39.5621 53.5836 38.5029 53.0591L36.3223 51.8003C35.7824 51.4856 35.4501 50.8982 35.4501 50.2688V40.5969C35.4501 39.9674 35.7824 39.38 36.3223 39.0653L44.6086 34.2188C45.1278 33.9251 45.8339 33.9251 46.353 34.2188L54.6393 39.0653C55.1792 39.38 55.5115 39.9674 55.5115 40.5969V50.2688C55.5115 50.8982 55.1792 51.4856 54.6393 51.8003L46.353 56.6468C46.0831 56.7727 45.7715 56.8356 45.4808 56.8356ZM48.0352 50.1848C44.4009 50.1848 43.6533 48.5064 43.6533 47.0798C43.6533 46.9539 43.7571 46.828 43.9025 46.828H44.9824C45.107 46.828 45.2108 46.9119 45.2108 47.0378C45.377 48.1498 45.8546 48.6952 48.056 48.6952C49.8004 48.6952 50.5481 48.2966 50.5481 47.3525C50.5481 46.807 50.3404 46.4084 47.6199 46.1356C45.3562 45.9049 43.944 45.4013 43.944 43.5761C43.944 41.8767 45.3562 40.8696 47.7237 40.8696C50.3819 40.8696 51.6903 41.7927 51.8564 43.8068C51.8564 43.8698 51.8357 43.9327 51.7941 43.9957C51.7526 44.0376 51.6903 44.0796 51.628 44.0796H50.5481C50.4442 44.0796 50.3404 43.9957 50.3196 43.8908C50.0704 42.7368 49.4266 42.3592 47.7237 42.3592C45.8131 42.3592 45.5846 43.0306 45.5846 43.5341C45.5846 44.1425 45.8546 44.3313 48.4298 44.667C50.9842 45.0027 52.1887 45.4853 52.1887 47.2896C52.1679 49.1358 50.6727 50.1848 48.0352 50.1848Z" fill="#539E43"/>
<path d="M19.7707 19.0081C19.7707 18.6305 19.563 18.2738 19.2307 18.085L10.4253 12.9658C10.2799 12.8819 10.1138 12.8399 9.94763 12.819H9.86456C9.69842 12.819 9.53228 12.8819 9.38691 12.9658L0.581489 18.085C0.249209 18.2738 0.0415344 18.6305 0.0415344 19.0081L0.0623019 32.7712C0.0623019 32.96 0.166139 33.1489 0.332279 33.2328C0.498419 33.3377 0.706094 33.3377 0.851467 33.2328L6.08487 30.2116C6.41715 30.0228 6.62483 29.6661 6.62483 29.2885V22.8475C6.62483 22.4699 6.8325 22.1132 7.16478 21.9244L9.38691 20.6236C9.55305 20.5187 9.73995 20.4768 9.92686 20.4768C10.1138 20.4768 10.3007 20.5187 10.446 20.6236L12.6682 21.9244C13.0005 22.1132 13.2081 22.4699 13.2081 22.8475V29.2885C13.2081 29.6661 13.4158 30.0228 13.7481 30.2116L18.9815 33.2328C19.1476 33.3377 19.3553 33.3377 19.5214 33.2328C19.6876 33.1489 19.7914 32.96 19.7914 32.7712L19.7707 19.0081Z" fill="#333333"/>
<path d="M62.0948 0.0629409C61.9287 -0.0209803 61.721 -0.0209803 61.5756 0.0629409C61.4095 0.167842 61.3056 0.335685 61.3056 0.524507V14.1617C61.3056 14.2876 61.2433 14.4135 61.1187 14.4974C60.9941 14.5603 60.8695 14.5603 60.7449 14.4974L58.5436 13.2176C58.2113 13.0288 57.8167 13.0288 57.4844 13.2176L48.679 18.3578C48.3467 18.5466 48.139 18.9032 48.139 19.2809V29.5402C48.139 29.9179 48.3467 30.2746 48.679 30.4634L57.4844 35.6035C57.8167 35.7924 58.2113 35.7924 58.5436 35.6035L67.349 30.4634C67.6812 30.2746 67.8889 29.9179 67.8889 29.5402V3.96527C67.8889 3.56665 67.6812 3.20998 67.349 3.02116L62.0948 0.0629409ZM61.2849 26.1624C61.2849 26.2673 61.2433 26.3512 61.1603 26.3932L58.149 28.1555C58.0659 28.1975 57.9621 28.1975 57.879 28.1555L54.8677 26.3932C54.7846 26.3512 54.7431 26.2463 54.7431 26.1624V22.6377C54.7431 22.5328 54.7846 22.4489 54.8677 22.4069L57.879 20.6446C57.9621 20.6026 58.0659 20.6026 58.149 20.6446L61.1603 22.4069C61.2433 22.4489 61.2849 22.5538 61.2849 22.6377V26.1624Z" fill="#333333"/>
<path d="M91.3978 22.5538C91.73 22.365 91.9169 22.0083 91.9169 21.6307V19.134C91.9169 18.7564 91.7093 18.3997 91.3978 18.2109L82.6546 13.0917C82.3224 12.9029 81.9278 12.9029 81.5955 13.0917L72.7901 18.2319C72.4578 18.4207 72.2501 18.7774 72.2501 19.155V29.4144C72.2501 29.792 72.4578 30.1487 72.7901 30.3375L81.5332 35.3728C81.8655 35.5616 82.2601 35.5616 82.5716 35.3728L87.8673 32.3936C88.0334 32.3097 88.1373 32.1208 88.1373 31.932C88.1373 31.7432 88.0334 31.5544 87.8673 31.4704L79.0203 26.3303C78.8542 26.2254 78.7503 26.0575 78.7503 25.8687V22.6587C78.7503 22.4699 78.8542 22.2811 79.0203 22.1972L81.7824 20.6026C81.9485 20.4977 82.1562 20.4977 82.3224 20.6026L85.0844 22.1972C85.2506 22.3021 85.3544 22.4699 85.3544 22.6587V25.1764C85.3544 25.3652 85.4582 25.554 85.6244 25.6379C85.7905 25.7428 85.9982 25.7428 86.1643 25.6379L91.3978 22.5538Z" fill="#333333"/>
<path d="M81.9901 22.0713C82.0524 22.0293 82.1354 22.0293 82.1978 22.0713L83.8799 23.0573C83.9422 23.0993 83.9838 23.1622 83.9838 23.2462V25.2183C83.9838 25.3022 83.9422 25.3652 83.8799 25.4071L82.1978 26.3932C82.1354 26.4352 82.0524 26.4352 81.9901 26.3932L80.3079 25.4071C80.2456 25.3652 80.2041 25.3022 80.2041 25.2183V23.2462C80.2041 23.1622 80.2456 23.0993 80.3079 23.0573L81.9901 22.0713Z" fill="#539E43"/>
<path d="M34.4948 13.1337C34.1625 12.9448 33.768 12.9448 33.4357 13.1337L24.6926 18.2319C24.3603 18.4207 24.1734 18.7774 24.1734 19.155V29.3724C24.1734 29.7501 24.381 30.1067 24.6926 30.2955L33.4357 35.3938C33.768 35.5826 34.1625 35.5826 34.4948 35.3938L43.2379 30.2955C43.5702 30.1067 43.7571 29.7501 43.7571 29.3724V19.155C43.7571 18.7774 43.5494 18.4207 43.2379 18.2319L34.4948 13.1337Z" fill="url(#paint0_linear_1_86)"/>
<mask id="mask0_1_86" style="mask-type:luminance" maskUnits="userSpaceOnUse" x="24" y="12" width="20" height="24">
<path d="M34.4948 13.1337C34.1625 12.9448 33.768 12.9448 33.4357 13.1337L24.6926 18.2319C24.3603 18.4207 24.1734 18.7774 24.1734 19.155V29.3724C24.1734 29.7501 24.381 30.1067 24.6926 30.2955L33.4357 35.3938C33.768 35.5826 34.1625 35.5826 34.4948 35.3938L43.2379 30.2955C43.5702 30.1067 43.7571 29.7501 43.7571 29.3724V19.155C43.7571 18.7774 43.5494 18.4207 43.2379 18.2319L34.4948 13.1337Z" fill="white"/>
</mask>
<g mask="url(#mask0_1_86)">
<path d="M43.2587 18.2319L34.4741 13.1337C34.391 13.0917 34.2872 13.0497 34.2041 13.0288L24.3603 30.0648C24.4434 30.1697 24.5472 30.2536 24.651 30.3165L33.4357 35.4147C33.6849 35.5616 33.9756 35.6036 34.2456 35.5196L43.4872 18.4417C43.4249 18.3578 43.3418 18.2948 43.2587 18.2319Z" fill="url(#paint1_linear_1_86)"/>
</g>
<mask id="mask1_1_86" style="mask-type:luminance" maskUnits="userSpaceOnUse" x="24" y="12" width="20" height="24">
<path d="M34.4948 13.1337C34.1625 12.9448 33.768 12.9448 33.4357 13.1337L24.6926 18.2319C24.3603 18.4207 24.1734 18.7774 24.1734 19.155V29.3724C24.1734 29.7501 24.381 30.1067 24.6926 30.2955L33.4357 35.3938C33.768 35.5826 34.1625 35.5826 34.4948 35.3938L43.2379 30.2955C43.5702 30.1067 43.7571 29.7501 43.7571 29.3724V19.155C43.7571 18.7774 43.5494 18.4207 43.2379 18.2319L34.4948 13.1337Z" fill="white"/>
</mask>
<g mask="url(#mask1_1_86)">
<path fill-rule="evenodd" clip-rule="evenodd" d="M43.2795 30.2955C43.5287 30.1487 43.7156 29.8969 43.7987 29.6242L34.1625 13.0078C33.9133 12.9658 33.6434 12.9868 33.4149 13.1337L24.6926 18.2109L34.1002 35.5406C34.2248 35.5196 34.3702 35.4777 34.4948 35.4147L43.2795 30.2955Z" fill="url(#paint2_linear_1_86)"/>
<path fill-rule="evenodd" clip-rule="evenodd" d="M43.2795 30.2955L34.5156 35.3938C34.391 35.4567 34.2664 35.4987 34.121 35.5196L34.2871 35.8343L44.0063 30.1487V30.0228L43.7571 29.6032C43.7156 29.8969 43.5287 30.1487 43.2795 30.2955Z" fill="url(#paint3_linear_1_86)"/>
<path fill-rule="evenodd" clip-rule="evenodd" d="M43.2795 30.2955L34.5156 35.3938C34.391 35.4567 34.2664 35.4987 34.121 35.5196L34.2871 35.8343L44.0063 30.1487V30.0228L43.7571 29.6032C43.7156 29.8969 43.5287 30.1487 43.2795 30.2955Z" fill="url(#paint4_linear_1_86)"/>
</g>
</g>
<defs>
<linearGradient id="paint0_linear_1_86" x1="1359.56" y1="407.203" x2="387.226" y2="1919.47" gradientUnits="userSpaceOnUse">
<stop stop-color="#41873F"/>
<stop offset="0.3288" stop-color="#418B3D"/>
<stop offset="0.6352" stop-color="#419637"/>
<stop offset="0.9319" stop-color="#3FA92D"/>
<stop offset="1" stop-color="#3FAE2A"/>
</linearGradient>
<linearGradient id="paint1_linear_1_86" x1="852.105" y1="1256.18" x2="3263.27" y2="-40.5113" gradientUnits="userSpaceOnUse">
<stop offset="0.1376" stop-color="#41873F"/>
<stop offset="0.4032" stop-color="#54A044"/>
<stop offset="0.7136" stop-color="#66B848"/>
<stop offset="0.9081" stop-color="#6CC04A"/>
</linearGradient>
<linearGradient id="paint2_linear_1_86" x1="-59.1604" y1="1140.52" x2="1963.95" y2="1140.52" gradientUnits="userSpaceOnUse">
<stop offset="0.0919165" stop-color="#6CC04A"/>
<stop offset="0.2864" stop-color="#66B848"/>
<stop offset="0.5968" stop-color="#54A044"/>
<stop offset="0.8624" stop-color="#41873F"/>
</linearGradient>
<linearGradient id="paint3_linear_1_86" x1="-992.576" y1="342.877" x2="1030.53" y2="342.877" gradientUnits="userSpaceOnUse">
<stop offset="0.0919165" stop-color="#6CC04A"/>
<stop offset="0.2864" stop-color="#66B848"/>
<stop offset="0.5968" stop-color="#54A044"/>
<stop offset="0.8624" stop-color="#41873F"/>
</linearGradient>
<linearGradient id="paint4_linear_1_86" x1="1325.27" y1="-1285.6" x2="802.564" y2="1425.62" gradientUnits="userSpaceOnUse">
<stop stop-color="#41873F"/>
<stop offset="0.3288" stop-color="#418B3D"/>
<stop offset="0.6352" stop-color="#419637"/>
<stop offset="0.9319" stop-color="#3FA92D"/>
<stop offset="1" stop-color="#3FAE2A"/>
</linearGradient>
<clipPath id="clip0_1_86">
<rect width="92" height="57" fill="white"/>
</clipPath>
</defs>
</svg>
