<svg width="83" height="83" viewBox="0 0 83 83" fill="none" xmlns="http://www.w3.org/2000/svg">
<g clip-path="url(#clip0_1_24)">
<path d="M41.5013 47.249C44.7086 47.249 47.3087 44.649 47.3087 41.4416C47.3087 38.2343 44.7086 35.6342 41.5013 35.6342C38.2939 35.6342 35.6939 38.2343 35.6939 41.4416C35.6939 44.649 38.2939 47.249 41.5013 47.249Z" fill="#00D8FF"/>
<path fill-rule="evenodd" clip-rule="evenodd" d="M41.928 29.2004C51.8296 29.2679 62.6326 29.9902 70.0481 36.603C70.266 36.7975 70.4761 36.9998 70.681 37.2086C72.4305 38.9918 73.3448 41.8709 71.9325 44.2403C69.0352 49.1049 62.556 51.2266 56.2831 52.5325C46.9015 54.4856 37.0919 54.5012 27.7142 52.7815C22.3179 51.7907 16.7997 50.0542 12.9648 46.4216C11.4721 45.008 10.196 43.1483 10.3957 41.0785C10.72 37.73 13.9323 35.5811 16.6363 34.126C24.1465 30.0849 33.2973 29.181 41.928 29.2004ZM41.2095 30.7217C31.8409 30.7852 21.7006 31.3831 14.4666 37.3733C14.2137 37.5821 13.9699 37.8013 13.7352 38.0309C13.5835 38.1787 13.4369 38.333 13.2956 38.4913C12.0259 39.9178 11.5889 42.2094 12.7872 43.9226C13.9933 45.6461 15.8245 46.8898 17.7101 47.904C24.7625 51.696 33.0962 52.3691 41.2212 52.3976C49.4472 52.4275 57.9301 51.6779 65.1965 47.9208C68.0911 46.4229 71.3489 44.2234 71.2334 41.3911C71.1271 38.7921 68.593 37.1866 66.6957 36.0402C66.1821 35.7302 65.6543 35.4436 65.1187 35.1738C57.9055 31.5595 49.4524 30.7035 41.2095 30.7217Z" fill="#00D8FF"/>
<path fill-rule="evenodd" clip-rule="evenodd" d="M54.6179 13.8805C58.24 13.9725 60.1166 18.3274 60.3643 21.5437C60.4136 22.183 60.4318 22.825 60.424 23.467C60.4162 24.1621 60.3786 24.8572 60.3176 25.5497C59.5538 34.1247 55.6385 42.2911 51.0281 49.8324C46.5189 57.209 41.0201 64.5649 33.5398 67.9835C31.0666 69.1144 28.1253 69.8121 25.9362 68.5502C22.9352 66.8215 22.6071 62.7778 22.6629 59.7107C22.6771 58.9572 22.7264 58.2037 22.8042 57.4529C23.9572 46.3516 29.5843 35.8352 36.6263 26.7753C40.7348 21.4892 45.6227 16.246 51.7116 14.3473C52.67 14.0477 53.4312 13.8662 54.6179 13.8805ZM54.4441 15.4004C50.1916 15.4678 46.3736 18.6192 42.9927 21.8938C34.1039 30.5012 27.5534 41.9487 24.9181 53.9539C24.7145 54.8837 24.5433 55.8201 24.4175 56.7629C24.3203 57.4931 24.2489 58.2271 24.2113 58.9637C24.1815 59.5499 24.1711 60.1374 24.1893 60.7249C24.2023 61.184 24.2321 61.6431 24.2827 62.0996C24.3203 62.4484 24.3709 62.796 24.4344 63.1409C24.4824 63.3964 24.5382 63.6506 24.603 63.9035C24.6562 64.1084 24.7158 64.312 24.7833 64.5143C25.3137 66.1134 26.6806 67.6411 28.5157 67.6917C32.7967 67.8084 36.8273 64.6868 40.312 61.2942C46.4294 55.3402 50.9879 47.8586 54.5491 39.9943C57.423 33.6448 60.0518 26.7429 58.5837 19.754C58.5279 19.4894 58.4631 19.2275 58.3892 18.9681C58.3282 18.7567 58.2595 18.5479 58.1843 18.3417C57.6137 16.7867 56.2714 15.3965 54.4441 15.4004Z" fill="#00D8FF"/>
<path fill-rule="evenodd" clip-rule="evenodd" d="M28.6726 13.9375C33.2947 14.027 37.446 17.1641 41.1317 20.6774C47.8573 27.0878 52.8178 35.2426 56.5814 43.8253C59.4967 50.4744 62.1787 57.9379 59.795 64.954C59.0441 67.1652 57.1442 69.1883 54.6114 69.2402C49.9673 69.3335 45.663 65.9565 41.928 62.3213C32.558 53.1991 25.6016 41.1563 23.218 28.3847C23.0468 27.4717 22.9106 26.5509 22.8172 25.6263C22.7407 24.8715 22.6927 24.1128 22.6798 23.3541C22.6694 22.742 22.6823 22.1299 22.7251 21.5203C22.7537 21.1131 22.7952 20.7085 22.8509 20.3052C22.9041 19.9265 22.9715 19.5491 23.0558 19.1756C23.1116 18.9279 23.1739 18.6828 23.2452 18.439C23.9442 16.0488 25.7624 13.9194 28.6726 13.9375ZM28.4975 15.4588C25.791 15.5184 24.5524 18.71 24.3034 20.9497C24.2529 21.4088 24.2217 21.8718 24.2075 22.3348C24.1893 22.9262 24.1971 23.5188 24.2269 24.1102C24.6523 32.6683 28.4781 40.9423 33.095 48.5187C37.4421 55.6515 42.6918 62.7558 49.9128 66.4078C51.9982 67.4621 54.5323 68.2908 56.3337 67.2948C58.5928 66.0447 58.8703 63.0657 58.991 60.8455C59.0234 60.2411 59.0273 59.6342 59.0078 59.0286C58.9845 58.2686 58.9248 57.5099 58.8353 56.7551C58.0027 49.704 54.8799 43.0316 51.2927 36.7262C46.8289 28.8827 41.3599 21.0651 33.6202 16.9813C32.0172 16.1357 30.282 15.4445 28.4975 15.4588Z" fill="#00D8FF"/>
</g>
<defs>
<clipPath id="clip0_1_24">
<rect width="83" height="83" fill="white"/>
</clipPath>
</defs>
</svg>
