<svg width="80" height="67" viewBox="0 0 80 67" fill="none" xmlns="http://www.w3.org/2000/svg">
<path d="M55.2761 40.7549L55.227 40.3233V39.9328L55.2761 39.1929C55.4847 37.7132 56.5767 35.9971 59.2515 35.9971C61.5951 35.9971 62.9325 37.4357 62.9325 39.1929H56.4663L56.3436 40.7446H65.816C65.816 37.0761 64.2209 34.3221 59.3006 34.3221C55.1288 34.3221 52.3804 36.6959 52.3804 40.0767C52.3804 43.7863 54.773 46.2218 60.0245 46.2218C62.454 46.2218 63.6442 45.7799 64.6871 45.4922V43.4061C64.0245 43.8275 61.9387 44.5468 60.1472 44.5468C57.5583 44.5571 55.2761 43.0156 55.2761 40.7549Z" fill="#361B63"/>
<path d="M12.3068 32.6779C10.8221 32.2361 10.0123 32.0305 8.51535 32.0305C6.90799 32.0305 5.00615 32.4724 5.00615 34.1063C5.00615 37.0966 13.6687 36.4081 13.6687 41.5462C13.6687 44.8756 10.3313 46.191 6.29449 46.191C4.88345 46.191 3.48468 45.8827 2.14725 45.5436L2.44173 43.4678C3.4356 43.7761 5.17793 44.2282 6.63805 44.2282C8.28222 44.2282 10.5767 43.5089 10.5767 41.6798C10.5767 38.1962 1.91412 39.1518 1.91412 34.3015C1.91412 31.527 4.76075 30.0575 8.39265 30.0575C9.7178 30.0575 11.3129 30.2322 12.6994 30.6227L12.3068 32.6779Z" fill="#361B63"/>
<path d="M14.0246 40.2411C14.0246 43.5089 17.0921 46.191 21.5706 46.191C26.0246 46.191 29.0798 43.5089 29.0798 40.2411C29.0798 36.7678 26.0736 34.2913 21.5706 34.2913C17.0307 34.281 14.0246 36.7678 14.0246 40.2411ZM16.9203 40.2411C16.9203 38.0729 18.6381 35.9663 21.5706 35.9663C24.4786 35.9663 26.1963 38.0729 26.1963 40.2411C26.1963 42.2758 24.773 44.516 21.5706 44.516C18.3436 44.516 16.9203 42.2758 16.9203 40.2411Z" fill="#361B63"/>
<path d="M40.1963 36.4595C39.1534 36.1204 38.1104 35.9663 37.2393 35.9663C34.1963 35.9663 32.4908 38.0729 32.4908 40.2411C32.4908 42.2758 33.9141 44.516 37.411 44.516C38.3436 44.516 39.4969 44.2899 40.3313 43.8686L40.5399 45.7285C39.411 46.1293 38.1104 46.191 37.1288 46.191C32.6748 46.191 29.6074 43.5089 29.6074 40.2411C29.6074 36.7678 32.6135 34.2913 37.1288 34.2913C38.2331 34.2913 39.6442 34.4865 40.4294 34.7434L40.1963 36.4595Z" fill="#361B63"/>
<path d="M41.2393 29.2149H43.9755V39.1724L49.9018 34.5687H53.6074L46.7485 39.5937L56.9448 47.8865H53.5092L43.9755 40.087V45.9546H41.2393V29.2149Z" fill="#361B63"/>
<path d="M74.5153 36.254H70.6012V42.4916C70.6012 43.8069 71.6442 44.5262 72.8834 44.5262C73.7178 44.5262 74.3313 44.3207 74.7362 44.1255V45.8929C74.1227 46.0265 73.2883 46.2012 72.4172 46.2012C69.6074 46.2012 67.865 45.1839 67.865 42.9129V36.254H65.2393C65.2393 36.254 65.0429 35.9457 64.7485 35.658C64.4908 35.4113 64 35.0722 64 35.0722V34.579H67.8528V31.9483L70.5767 31.2804V34.579H74.4908V36.254H74.5153Z" fill="#361B63"/>
<path d="M24.8221 21.1584C25.2883 22.6588 27.6319 23.6658 30.5521 24.3543C32.1718 21.9703 31.5951 20.213 24.8221 21.1584Z" fill="#FFB535"/>
<path d="M19.865 21.2509C20.9693 18.8772 24.8098 16.4726 29.3497 14.3454C27.546 13.9241 25.5828 13.883 23.6442 14.3043C18.9203 15.3319 15.7792 18.7641 15.7301 22.5252C17.043 22.1038 18.4417 21.662 19.865 21.2509Z" fill="#361B63"/>
<path d="M24.8344 19.9767C31.9141 18.425 37.6687 18.5997 33.681 24.94C34.6503 25.0839 35.6196 25.2072 36.5644 25.31C37.1779 23.7789 37.2761 22.0833 36.7239 20.4186C35.865 17.8393 33.6564 15.856 30.8834 14.8181C27.0552 16.9144 25.2515 18.61 24.8344 19.9767Z" fill="#361B63"/>
<path d="M27.0675 28.0126C21.2761 26.2656 19.2638 24.2413 19.5828 22.1552C18.4049 22.4224 17.1288 22.7409 15.7423 23.1109C15.7791 23.6966 15.9018 24.2926 16.0982 24.8784C17.1043 27.8995 19.9755 30.1192 23.4356 30.931C24.4417 30.1808 25.7791 29.1429 27.0675 28.0126Z" fill="#FFB535"/>
<path d="M30.5767 28.9374C29.9755 29.6157 29.3006 30.335 28.5644 31.0954C28.773 31.0646 28.9693 31.0235 29.1779 30.9824C30.6135 30.6741 31.8896 30.1397 32.9939 29.4512C32.135 29.2765 31.3374 29.1121 30.5767 28.9374Z" fill="#361B63"/>
<path d="M1.95093 49.8287H2.84663L3.91412 52.4696H3.92639L4.9816 49.8287H5.80369L4.40492 53.1992H3.37424L1.95093 49.8287Z" fill="#FFB535"/>
<path d="M8.18406 52.7265C9.04295 52.7265 9.3497 52.11 9.3497 51.5037C9.3497 50.9077 9.00614 50.3014 8.18406 50.3014C7.3497 50.3014 7.01841 50.9077 7.01841 51.5037C7.01841 52.11 7.33743 52.7265 8.18406 52.7265ZM8.18406 49.7773C9.49694 49.7773 10.2209 50.4864 10.2209 51.5037C10.2209 52.521 9.49694 53.2506 8.18406 53.2506C6.84663 53.2506 6.14725 52.5313 6.14725 51.5037C6.14725 50.4761 6.8589 49.7773 8.18406 49.7773Z" fill="#FFB535"/>
<path d="M11.7546 49.8287H10.9203V53.1889H11.7546V49.8287Z" fill="#FFB535"/>
<path d="M15.681 53.1479C15.3742 53.2095 15.0429 53.2506 14.7362 53.2506C13.3865 53.2506 12.454 52.706 12.454 51.5653C12.454 50.4144 13.3251 49.767 14.7362 49.767C15.0061 49.767 15.3742 49.8081 15.681 49.9109L15.6196 50.4761C15.3006 50.3322 15.0184 50.3014 14.7239 50.3014C13.865 50.3014 13.3251 50.8357 13.3251 51.5242C13.3251 52.2127 13.8528 52.7265 14.7362 52.7265C15.0675 52.7265 15.4478 52.6649 15.6442 52.5827L15.681 53.1479Z" fill="#FFB535"/>
<path d="M16.2945 49.8287H18.7607V50.363H17.1288V51.1851H18.6258V51.7195H17.1288V52.6649H18.773V53.1992H16.2945V49.8287Z" fill="#FFB535"/>
<path d="M23.2638 50.8666H21.7178V52.11H23.2638V50.8666Z" fill="#FFB535"/>
<path d="M27.1779 52.6649H27.6442C28.3436 52.6649 29.0184 52.2436 29.0184 51.5139C29.0184 50.7843 28.3436 50.363 27.6442 50.363H27.1779V52.6649ZM26.3436 49.8287H27.4847C28.7607 49.8287 29.8896 50.1781 29.8896 51.5139C29.8896 52.8498 28.7607 53.1992 27.4847 53.1992H26.3436V49.8287Z" fill="#FFB535"/>
<path d="M32.2945 50.5069L31.681 51.8942H32.8957L32.2945 50.5069ZM31.8405 49.8287H32.7853L34.4172 53.1889H33.4969L33.1411 52.4182H31.4479L31.0798 53.1889H30.2086L31.8405 49.8287Z" fill="#FFB535"/>
<path d="M35.2393 50.363H34.0368V49.8287H37.2638V50.363H36.0736V53.1992H35.2393V50.363Z" fill="#FFB535"/>
<path d="M38.9693 50.5069L38.3558 51.8942H39.5705L38.9693 50.5069ZM38.5153 49.8287H39.4601L41.092 53.1889H40.1718L39.8159 52.4182H38.1227L37.7546 53.1889H36.8834L38.5153 49.8287Z" fill="#FFB535"/>
<path d="M45.2761 50.8666H43.7301V52.11H45.2761V50.8666Z" fill="#FFB535"/>
<path d="M49.1043 49.8287H48.2699V53.1889H49.1043V49.8287Z" fill="#FFB535"/>
<path d="M49.9632 49.8287H50.9939L52.5767 52.3463H52.589V49.8287H53.3865V53.1992H52.3681L50.773 50.6816H50.7607V53.1992H49.9632V49.8287Z" fill="#FFB535"/>
<path d="M55.0675 50.363H53.8773V49.8287H57.1043V50.363H55.9019V53.1992H55.0675V50.363Z" fill="#FFB535"/>
<path d="M57.6319 49.8287H60.0982V50.363H58.4663V51.1851H59.9509V51.7195H58.4663V52.6649H60.0982V53.1992H57.6319V49.8287Z" fill="#FFB535"/>
<path d="M61.7178 51.2673H61.9877C62.4049 51.2673 62.8712 51.216 62.8712 50.8049C62.8712 50.4041 62.4049 50.363 61.9877 50.363H61.7178V51.2673ZM60.8834 49.8287H61.7791C62.6748 49.8287 63.7423 49.8081 63.7423 50.7433C63.7423 51.1337 63.411 51.4626 62.8834 51.5242V51.5345C63.1043 51.5448 63.2392 51.7298 63.3251 51.8839L63.9877 53.1992H63.0675L62.5644 52.1511C62.4417 51.9044 62.3435 51.8017 61.9877 51.8017H61.7178V53.1992H60.8834V49.8287Z" fill="#FFB535"/>
<path d="M64.5521 49.8287H65.5828L67.1656 52.3463H67.1779V49.8287H67.9754V53.1992H66.957L65.3619 50.6816H65.3497V53.1992H64.5521V49.8287Z" fill="#FFB535"/>
<path d="M68.908 49.8287H71.3619V50.363H69.7423V51.1851H71.227V51.7195H69.7423V52.6649H71.3742V53.1992H68.908V49.8287Z" fill="#FFB535"/>
<path d="M72.9816 50.363H71.7914V49.8287H75.0061V50.363H73.816V53.1992H72.9816V50.363Z" fill="#FFB535"/>
<path d="M76.9816 32.9143C77.1534 32.9143 77.2761 32.8937 77.2761 32.7396C77.2761 32.606 77.092 32.5854 76.9448 32.5854H76.6871V32.9246H76.9816V32.9143ZM76.3313 32.3594H76.9571C77.3865 32.3594 77.6196 32.4621 77.6196 32.7601C77.6196 33.0068 77.4356 33.0992 77.1779 33.1198L77.6196 33.7055H77.2515L76.8466 33.1301H76.6871V33.7055H76.3313V32.3594ZM76.9325 33.983C77.5337 33.983 78 33.6028 78 33.0376C78 32.4724 77.5215 32.0922 76.9325 32.0922C76.3313 32.0922 75.865 32.4827 75.865 33.0376C75.865 33.6028 76.3313 33.983 76.9325 33.983ZM76.9325 31.825C77.7669 31.825 78.4417 32.3696 78.4417 33.0376C78.4417 33.7055 77.7669 34.2502 76.9325 34.2502C76.0982 34.2502 75.4233 33.7055 75.4233 33.0376C75.4233 32.3696 76.1104 31.825 76.9325 31.825Z" fill="#361B63"/>
</svg>
